PathFileType	4	(X/Y/Z)	C:/Users/opensim2020/Desktop/walking_exp_matlab/subject06_walking20_straight_04.trc																																																																																																																															
DataRate	CameraRate	NumFrames	NumMarkers	Units	OrigDataRate	OrigDataStartFrame	OrigNumFrames																																																																																																																											
100	100	8	43	mm	100	2268	126																																																																																																																											
Frame#	Time	LFHD			RFHD			LBHD			RBHD			C7			T10			CLAV			STRN			RBAK			LSHO			LUPA			LELB			LFRM			LWRA			LWRB			LFIN			RSHO			RUPA			RELB			RFRM			RWRA			RWRB			RFIN			LASI			RASI			LPSI			RPSI			LTHI			LKNE			LTIB			LANK			LHEE			LTOE			RTHI			RKNE			RTIB			RANK			RHEE			RTOE			*39			*40			*41			*42		
		X1	Y1	Z1	X2	Y2	Z2	X3	Y3	Z3	X4	Y4	Z4	X5	Y5	Z5	X6	Y6	Z6	X7	Y7	Z7	X8	Y8	Z8	X9	Y9	Z9	X10	Y10	Z10	X11	Y11	Z11	X12	Y12	Z12	X13	Y13	Z13	X14	Y14	Z14	X15	Y15	Z15	X16	Y16	Z16	X17	Y17	Z17	X18	Y18	Z18	X19	Y19	Z19	X20	Y20	Z20	X21	Y21	Z21	X22	Y22	Z22	X23	Y23	Z23	X24	Y24	Z24	X25	Y25	Z25	X26	Y26	Z26	X27	Y27	Z27	X28	Y28	Z28	X29	Y29	Z29	X30	Y30	Z30	X31	Y31	Z31	X32	Y32	Z32	X33	Y33	Z33	X34	Y34	Z34	X35	Y35	Z35	X36	Y36	Z36	X37	Y37	Z37	X38	Y38	Z38	X39	Y39	Z39	X40	Y40	Z40	X41	Y41	Z41	X42	Y42	Z42	X43	Y43	Z43
																																																																																																																																		
111	1.1	448.6153	1661.24048	-1465.54614	433.73318	1637.13159	-1335.9989	314.44946	1613.03613	-1486.26904	301.05096	1594.36328	-1358.88562	303.58765	1444.76392	-1435.8009	281.96252	1112.86829	-1437.27686	415.53946	1370.18848	-1435.98047	462.19501	1197.26233	-1452.27075	235.67529	1267.20349	-1364.43054	357.21976	1406.61023	-1597.16614	368.65335	1208.78748	-1676.23169	377.64441	1097.6554	-1693.20459	470.91791	982.67358	-1712.80396	584.02136	929.05267	-1665.01245	541.20026	886.55737	-1702.38391	624.5072	854.01318	-1703.16235	368.45154	1393.89343	-1273.86865	299.78317	1205.05432	-1190.198	285.56827	1083.82593	-1175.55371	274.63046	964.59802	-1153.35901	305.56033	813.79553	-1174.49097	249.48082	829.50494	-1139.34167	265.63132	746.40308	-1133.09619	459.1297	956.92944	-1555.91174	477.9938	973.56897	-1335.55188	301.94116	974.94397	-1515.27759	322.32983	988.06775	-1348.14917	421.33734	634.71863	-1612.1842	450.58862	474.47076	-1602.6637	262.31747	319.25171	-1591.93652	129.23561	212.22293	-1552.97363	94.59926	232.3463	-1505.38525	189.47581	80.76077	-1550.93005	488.55872	641.5766	-1279.12878	522.07178	522.58081	-1312.32104	485.91611	257.18414	-1316.68835	467.18484	73.48792	-1365.29004	426.02261	50.30067	-1409.65173	621.95135	37.24948	-1373.24023	343.60336	1697.41724	-1413.76758	NaN	NaN	NaN	NaN	NaN	NaN	NaN	NaN	NaN
112	1.11	462.41022	1663.68518	-1463.83667	447.31033	1639.11145	-1334.4519	328.30344	1615.59961	-1485.10144	314.69806	1596.41748	-1357.854	317.07297	1447.36597	-1434.79517	294.95673	1115.40308	-1436.04993	429.12567	1372.44812	-1435.39075	475.28156	1199.4574	-1451.53296	249.14607	1270.00806	-1363.19324	370.76154	1408.99524	-1596.45056	380.15482	1210.77478	-1675.27417	388.19861	1099.2428	-1691.91016	477.80594	980.76746	-1711.90295	588.9856	922.72906	-1664.47681	544.28784	882.047	-1701.80444	626.07977	845.87079	-1702.63232	382.36264	1396.13477	-1273.15125	315.77386	1206.68994	-1188.9104	303.03448	1085.37366	-1173.99902	295.4281	965.79028	-1152	330.85284	816.19708	-1173.8573	274.4577	830.08087	-1138.27344	293.76996	747.82794	-1131.99475	472.34293	960.02313	-1554.84436	490.61298	975.1405	-1334.76746	314.93912	977.62152	-1513.83545	335.3992	990.05273	-1346.60413	441.28729	638.51831	-1611.42749	475.04776	479.16812	-1601.87732	290.33978	320.39755	-1591.64709	159.83498	209.74936	-1552.78198	124.20537	227.82379	-1504.57922	225.69141	81.67941	-1553.104	496.54358	642.65784	-1279.48804	526.97894	522.55957	-1312.35571	488.28885	257.36838	-1317.03796	467.51318	73.6489	-1365.51685	426.34973	49.77633	-1410.31079	621.78833	37.38748	-1373.37891	357.28354	1699.68555	-1412.16248	NaN	NaN	NaN	NaN	NaN	NaN	NaN	NaN	NaN
113	1.12	476.21191	1665.97546	-1462.1936	460.91098	1640.99426	-1332.98462	342.23486	1618.0885	-1483.95288	328.1412	1598.48071	-1356.98572	330.84787	1449.64697	-1434.05225	307.90198	1117.86963	-1434.98413	442.5563	1374.64246	-1434.73193	488.34402	1201.63562	-1450.72656	262.48425	1272.71216	-1362.04065	384.26608	1411.30774	-1595.70251	391.49106	1212.75928	-1674.40784	398.5228	1100.89844	-1690.68982	483.9866	978.92627	-1710.76526	593.15405	916.29895	-1664.17261	546.63763	877.48975	-1701.27417	626.72961	837.65631	-1702.23132	396.01941	1398.47253	-1272.5155	331.42868	1208.47986	-1187.71692	320.35956	1087.02429	-1172.60791	316.1275	967.30121	-1150.75879	356.30331	819.29401	-1173.34277	299.69199	830.93738	-1137.52405	322.19235	749.79797	-1131.07715	485.77548	963.26501	-1553.64441	503.50629	976.88007	-1333.79089	327.95038	980.37885	-1512.55151	348.35101	992.02661	-1345.40515	460.82016	642.38031	-1610.76758	498.98334	484.04218	-1601.07495	318.49976	320.76755	-1591.26074	191.45506	205.6983	-1552.7052	155.1602	221.99875	-1504.46484	263.22324	81.46069	-1555.25928	504.24341	643.71851	-1279.86792	531.63647	522.61908	-1312.20251	490.42114	257.26447	-1317.40356	467.72519	73.68851	-1365.86243	425.89542	50.50138	-1409.81836	621.59015	37.4989	-1373.46509	370.99716	1701.89795	-1410.76648	NaN	NaN	NaN	NaN	NaN	NaN	NaN	NaN	NaN
114	1.13	490.02515	1668.08093	-1460.7207	474.41547	1642.74475	-1331.63025	356.00351	1620.48035	-1483.18811	341.64145	1600.44922	-1355.98389	344.33313	1451.89197	-1433.26343	320.76587	1120.24182	-1433.70117	455.79272	1376.67285	-1434.0885	501.28125	1203.7323	-1449.87207	275.74301	1275.203	-1360.84717	397.67133	1413.55273	-1594.97449	402.74594	1214.74048	-1673.53247	408.65121	1102.59558	-1689.43213	489.96753	977.14557	-1710.14905	596.72717	909.86493	-1663.88428	548.28296	873.10785	-1700.87476	626.42792	829.46094	-1701.92273	409.46637	1400.82153	-1271.85693	346.72049	1210.40771	-1186.54553	337.44308	1088.84192	-1171.41455	336.81207	969.09863	-1149.72314	381.75613	822.81415	-1173.0835	325.09955	832.33929	-1136.8877	351.0119	752.35889	-1130.31714	499.02625	966.38544	-1552.3623	516.13623	978.67737	-1332.54419	341.05942	983.0163	-1511.64148	361.11517	993.97522	-1344.52795	479.98926	646.36945	-1610.19702	522.38428	488.9664	-1600.35278	346.8071	320.26129	-1590.80957	223.90666	200.38896	-1552.89697	186.99231	214.40054	-1504.16479	301.5795	80.14671	-1557.34265	512.08356	644.66931	-1280.11804	536.06427	522.51514	-1312.03906	492.1499	257.03665	-1317.72815	467.87207	73.72834	-1366.1062	425.74908	50.63604	-1409.92993	621.37097	37.58942	-1373.60876	384.70453	1704.00989	-1409.41333	NaN	NaN	NaN	NaN	NaN	NaN	NaN	NaN	NaN
115	1.14	503.82117	1669.93542	-1459.22778	487.71579	1644.30164	-1330.23718	369.68274	1622.70056	-1482.37976	355.00302	1602.38135	-1355.22083	357.50323	1454.03772	-1432.53735	333.69754	1122.4104	-1432.58472	468.92117	1378.56665	-1433.33484	514.27832	1205.72839	-1448.99182	288.94897	1277.50122	-1359.70642	410.96671	1415.60535	-1594.19922	414.13464	1216.67163	-1672.62476	418.65842	1104.25854	-1688.2262	495.24899	975.42584	-1709.17212	599.59998	903.46967	-1663.87415	549.23572	868.89209	-1700.67615	625.25946	821.3952	-1701.72534	422.65381	1403.07324	-1271.1897	361.63705	1212.40161	-1185.42529	354.24487	1090.73669	-1170.2124	357.37143	971.09003	-1148.8197	407.73264	826.8783	-1172.70752	350.58072	833.92639	-1136.57959	380.1709	755.49384	-1129.7998	512.29071	969.36029	-1550.99792	528.53424	980.33252	-1331.31372	354.19824	985.46069	-1511.0741	373.74744	995.72064	-1343.99915	498.81708	650.35944	-1609.66528	545.21466	493.91675	-1599.66321	375.39523	319.01761	-1590.34229	257.38837	193.80045	-1553.08301	219.90475	205.53419	-1504.0188	341.05301	78.32894	-1559.66833	520.19373	645.3924	-1280.24866	540.57098	522.22919	-1311.80359	493.43784	256.94025	-1317.95374	467.94437	73.77402	-1366.2644	425.2774	50.63991	-1409.90247	621.16351	37.61666	-1373.64648	398.42075	1705.95898	-1408.19312	NaN	NaN	NaN	NaN	NaN	NaN	NaN	NaN	NaN
116	1.15	517.65936	1671.59802	-1457.88928	501.02252	1645.6134	-1328.99561	383.63748	1624.72388	-1481.49255	368.30722	1604.17212	-1354.52905	370.94559	1455.74939	-1431.89905	346.5618	1124.43066	-1431.36865	482.07709	1380.34656	-1432.63538	527.23425	1207.47729	-1448.04333	302.07449	1279.57068	-1358.55005	424.27811	1417.46191	-1593.4231	425.74017	1218.43823	-1671.70679	428.72519	1105.86511	-1686.90686	500.31982	973.72601	-1708.5033	601.89655	897.02002	-1663.9978	549.68329	864.80981	-1700.59155	623.39465	813.49286	-1701.64392	435.78348	1405.19836	-1270.55383	376.28479	1214.3053	-1184.29419	370.63971	1092.5896	-1169.14355	377.76529	973.18774	-1147.92639	433.43854	831.26849	-1172.66321	376.25711	835.96912	-1136.37317	409.05615	758.90112	-1129.54614	524.05786	971.5127	-1549.73926	540.89014	981.76617	-1329.89807	367.36871	987.57813	-1510.73438	386.38916	997.26752	-1343.66052	517.2915	654.20129	-1609.31238	567.5401	498.83774	-1598.92871	404.03769	316.96008	-1589.93164	291.66412	186.37448	-1553.29333	253.76114	195.52155	-1503.90527	381.66467	76.06715	-1561.93762	528.10327	645.45593	-1280.45203	544.77185	521.65759	-1311.49231	494.39801	256.9241	-1318.07629	467.94363	73.87554	-1366.38831	424.65817	51.13905	-1409.45227	621.00781	37.70758	-1373.63049	412.24683	1707.75061	-1407.05908	NaN	NaN	NaN	NaN	NaN	NaN	NaN	NaN	NaN
117	1.16	531.40948	1672.89197	-1456.5531	514.37976	1646.74854	-1327.8009	397.21603	1626.57202	-1480.81934	381.53366	1605.72632	-1353.82568	384.10477	1457.26331	-1431.23083	359.44864	1126.23279	-1430.33765	495.16296	1381.85291	-1431.87134	540.23676	1209.05811	-1447.05481	315.34219	1281.26733	-1357.27026	437.496	1419.06348	-1592.64368	437.51837	1219.98511	-1670.70471	438.83865	1107.34082	-1685.59888	505.29553	972.23553	-1707.91724	603.70288	890.63177	-1664.42944	549.71924	861.05206	-1700.71936	620.80396	805.82184	-1701.77979	448.67044	1407.03174	-1269.99463	390.61911	1216.16248	-1183.12976	386.61957	1094.38806	-1168.04773	397.86572	975.31763	-1147.16809	459.14706	836.02509	-1172.65552	401.76541	838.07806	-1136.33398	438.04675	762.78735	-1129.63855	537.28345	973.78284	-1548.39551	553.07947	982.86902	-1328.48425	380.59094	989.35474	-1510.57263	398.90207	998.62207	-1343.43042	535.48444	657.86176	-1609.29333	589.12128	503.52521	-1598.14844	432.71301	314.46957	-1589.81177	326.88901	178.20035	-1553.82141	288.67923	184.55634	-1503.92139	423.16208	73.65061	-1564.23438	535.69574	645.39734	-1280.53821	548.72253	520.94238	-1310.86304	495.18381	257.06967	-1318.10144	467.95316	74.03677	-1366.54602	424.8201	51.15647	-1409.65833	620.8385	37.74736	-1373.66541	425.96176	1709.31641	-1406.03735	NaN	NaN	NaN	NaN	NaN	NaN	NaN	NaN	NaN
118	1.17	545.15259	1673.93127	-1455.3512	527.55701	1647.59802	-1326.64343	410.93387	1628.11646	-1480.13367	394.73318	1607.06628	-1353.2439	397.19986	1458.48291	-1430.55591	372.32971	1127.69666	-1429.28027	508.09695	1383.09204	-1431.11707	553.31342	1210.44153	-1446.09082	328.46661	1282.70093	-1356.06641	450.65173	1420.33618	-1591.87183	449.3027	1221.21143	-1669.6792	449.06473	1108.5448	-1684.33728	510.18845	970.79291	-1707.41443	605.09723	884.36401	-1664.9364	549.41895	857.47968	-1700.98682	617.6026	798.35828	-1702.07288	461.47653	1408.7052	-1269.40295	404.69699	1217.78784	-1181.96545	402.19528	1095.98242	-1166.9447	417.72913	977.46399	-1146.45837	484.6149	841.12	-1172.802	427.34662	840.46246	-1136.4917	467.091	767.00867	-1129.95117	550.6828	975.78131	-1547.08179	565.15442	983.6734	-1327.15906	393.8248	990.91162	-1510.53064	411.30304	999.68378	-1343.30859	553.27948	661.05103	-1609.43909	609.88226	507.84012	-1597.31201	461.41641	311.3652	-1589.70667	363.03134	169.29811	-1554.44617	324.62286	172.92075	-1504.19482	465.29199	70.89957	-1566.57703	542.76959	645.18085	-1280.46533	552.68604	520.26459	-1309.95007	496.00925	257.19107	-1318.11365	467.66187	73.99033	-1366.83887	424.67667	51.30793	-1409.81653	620.65076	37.83639	-1373.61023	439.68234	1710.61731	-1405.11658	NaN	NaN	NaN	NaN	NaN	NaN	NaN	NaN	NaN
